PathFileType	4	(X/Y/Z)	Patient4_TMGait_0pt3_02_left_22.trc.trc
DataRate	CameraRate	NumFrames	NumMarkers	Units	OrigDataRate	OrigDataStartFrame	OrigNumFrames
51.851851851852	51.851851851852	6	33	mm	51.851851851852	89	       141
Frame#	Time	Sacral			L.Shoulder			Chest			R.Shoulder			Neck			R.ASIS			L.ASIS			R.Thigh.Superior			R.Thigh.Lateral			R.Thigh.Inferior			R.Patella			L.Thigh.Superior			L.Thigh.Lateral			L.Thigh.Inferior			L.Patella			L.Shank.Superior			L.Shank.Lateral			L.Shank.Inferior			R.Shank.Superior			R.Shank.Lateral			R.Shank.Inferior			R.Heel			R.Midfoot.Superior			R.Midfoot.Lateral			R.Toe			L.Heel			L.Midfoot.Lateral			L.Midfoot.Superior			L.Toe			L.Elbow			L.Wrist			R.Elbow			R.Wrist			
		X1	Y1	Z1	X2	Y2	Z2	X3	Y3	Z3	X4	Y4	Z4	X5	Y5	Z5	X6	Y6	Z6	X7	Y7	Z7	X8	Y8	Z8	X9	Y9	Z9	X10	Y10	Z10	X11	Y11	Z11	X12	Y12	Z12	X13	Y13	Z13	X14	Y14	Z14	X15	Y15	Z15	X16	Y16	Z16	X17	Y17	Z17	X18	Y18	Z18	X19	Y19	Z19	X20	Y20	Z20	X21	Y21	Z21	X22	Y22	Z22	X23	Y23	Z23	X24	Y24	Z24	X25	Y25	Z25	X26	Y26	Z26	X27	Y27	Z27	X28	Y28	Z28	X29	Y29	Z29	X30	Y30	Z30	X31	Y31	Z31	X32	Y32	Z32	X33	Y33	Z33	

89	44.757142857143	794.327893065174	1008.759233824188	459.767417512228	1021.188126076169	1429.514468915622	314.183063131574	1085.665615468022	1357.888220538532	492.228778918101	973.412872129892	1436.290497509493	645.822824777620	973.976037936850	1493.119705680551	466.424412481610	1004.766949482716	940.194701879994	610.772122063308	1027.991583018684	954.456630394419	336.409340252544	1061.623614150673	748.148664160435	577.274045007294	987.681539930074	633.600798961083	633.519791272627	1070.711468224037	587.200558737456	554.477551923951	1078.093213103413	500.913914253534	560.835055154840	1026.247795002645	724.428301876682	358.156546827384	916.293378300497	628.333275280621	285.916209006943	978.364840033710	532.910434728618	347.682776649541	961.966453214336	459.184598961183	349.903552382248	909.057125059676	401.627607332656	338.556869778221	785.538589068919	326.433165703560	283.703696037272	798.020146847775	199.100375684968	344.087696421767	1055.868392268393	410.545741847781	568.938738124943	992.327468647052	304.595354931493	635.547689405847	1036.967946027755	210.548837068663	572.046954043431	906.474742179129	43.966147548371	555.125285517953	1081.196861394091	97.434428297060	575.726013920375	996.113356608257	37.685165358383	621.493599815761	1202.399052279403	45.056180624404	592.683048575274	628.990237340707	77.446785120574	377.468298401651	701.365614320310	56.831958868100	299.391020644512	795.231599777313	102.996368383955	324.392787168672	909.367645166331	36.765684208674	298.378563013443	1169.693788144709	1147.259685884405	154.823523622778	1429.130503807386	1157.199801628142	164.697143221356	828.980275626974	1114.720912688484	734.321033315878	826.014885434034	853.763424347606	753.313034952231	
90	44.776428571429	795.855646743891	1009.492428708399	465.801075946194	1021.446822962381	1430.284841425092	317.948154124605	1087.561616339520	1358.576980581733	495.407839199091	976.651444045799	1436.877792358521	650.003445703202	975.568441101116	1493.912234529980	470.474098971152	1007.573608834712	940.959571067159	614.987134568936	1028.529772116838	955.220094635287	340.517290406035	1062.854080462401	747.906231726722	581.020563011412	988.032734759896	633.633434050690	636.742870489778	1070.385426097175	586.850291664652	557.274613084916	1077.180667649457	500.354453618522	562.882171448154	1029.995108969457	725.733796000054	361.946914685099	921.938697413948	628.247711780100	289.597892886026	986.375605129703	533.145485419089	350.562226103041	970.504784320361	458.052735083637	351.676844627648	915.125399042033	401.421948172874	340.398334446362	789.185592073247	330.251192266586	285.667532923113	798.655051192082	201.883426003689	344.221996114451	1054.099153241153	410.239335550503	570.421144223968	989.926890152242	304.509051123277	636.660884920808	1033.138274980489	210.370433454890	572.358775698263	901.165729250950	44.268472965407	555.128244440973	1075.984300153090	97.377970426951	575.724952975949	990.772583953880	37.879248169556	621.450936223855	1197.176510136197	44.221375472876	592.888385961510	626.342923491454	85.756927259587	377.321548422844	697.659565257809	61.946913160866	299.300985685422	793.208840872422	104.574523935044	323.788515758712	904.036516562630	36.366873740814	298.364424345172	1166.517122664317	1144.703663234656	159.597458294454	1426.337362808185	1150.008447563632	167.191039363041	836.093385516049	1114.029031560708	742.084863479603	838.241666443554	853.221179140687	762.459525917204	
91	44.795714285714	797.131286364487	1010.064647221128	471.732679965320	1021.443336483071	1430.826385447597	321.453040096578	1089.190514029597	1359.128588997660	498.339698830585	979.606162975109	1437.358249186730	653.893974060389	976.922253296479	1494.552325054898	474.226896599546	1010.120125407282	941.573396030692	619.127947592107	1028.793238761439	955.824139875405	344.585587267424	1063.931576588394	747.609785827568	584.681534256591	988.261992386588	633.549868226365	639.881292307721	1069.986098432471	586.459087316354	560.036901220733	1076.205547624640	499.725403888322	564.960230964279	1033.972981999094	727.102304013109	365.826691011443	928.260421093552	628.035403052798	293.226119882849	995.139803728580	533.455620593522	353.625562026866	979.861190437242	456.985415578754	353.568271612351	922.083655204167	401.198873720583	342.300724162434	793.819380086386	334.282122834622	287.644784538264	799.983569176387	205.018467800534	344.408336430615	1052.238203358577	409.855799409985	571.928867719513	987.380274463714	304.351595726315	637.731933171660	1029.235590485865	210.163693917021	572.698007969170	895.832843641857	44.584778080696	555.083310526007	1070.700026846342	97.369018966708	575.730213472396	985.399211840019	38.069099900406	621.373785262617	1191.885323714931	43.490484043666	593.098348270338	624.399671270937	95.143230594080	377.247333290437	694.390797935261	67.971863982760	299.253573848499	791.612625983023	106.488670217183	323.258760382664	898.623253574380	35.862724649218	298.382851842171	1162.461400169406	1141.415574065911	164.421612240680	1422.602814435694	1140.828212341662	169.594201889000	843.515406708636	1113.055479053125	749.634315458585	851.255032049687	852.486257927498	771.336998756074	
92	44.815000000000	798.144208496437	1010.442826523243	477.546979814536	1021.151910001522	1431.110362378179	324.702999506998	1090.522991298238	1359.513350676676	501.030719995009	982.243110571025	1437.705785361454	657.495011176854	978.001086182701	1495.005583772356	477.690415023472	1012.416167788286	941.999523864657	623.160712809168	1028.764736348278	956.249897957676	348.575773112577	1064.929266441284	747.260986891344	588.172949541538	988.486505428568	633.336210614412	642.889540440505	1069.620073833434	586.014849202566	562.695834178646	1075.298414885850	498.994504483388	567.012337064869	1038.148007471121	728.542477848991	369.792323342939	935.239028160628	627.728005300728	296.798388514971	1004.573738704963	533.888271700871	356.928849665279	989.965187279218	456.044024711059	355.651393746997	929.895320326924	400.992342941796	344.315037308305	799.430417819435	338.546816650684	289.668363473408	802.013551822792	208.552878586265	344.713119622711	1050.379389470459	409.358740473126	573.419171792829	984.761340991025	304.111442351210	638.747301186165	1025.287505045520	209.892482400566	573.045666412261	890.427662258259	44.898911962955	555.007619604061	1065.321953190102	97.374934079322	575.733088554346	979.950899038903	38.246649635486	621.280283470072	1186.495461040435	42.842969104143	593.298583235983	623.243680931762	105.671020445783	377.297555159450	691.628051996376	75.021257847957	299.293718592139	790.450584035172	108.836800366945	322.869699538157	893.110651842268	35.222874108259	298.447372089719	1157.498125248407	1137.422266246032	169.288695719300	1417.775222971260	1129.558271138131	171.922349280495	851.306846792417	1111.737341956245	756.904887544887	865.153071886283	851.530984619938	779.889867700322	
93	44.834285714286	798.886531753913	1010.600601072962	483.230987159925	1020.541508090470	1431.122240487753	327.705672417855	1091.536589818117	1359.707405230714	503.482062637716	984.552281851996	1437.898338886227	660.815117373921	978.777967751108	1495.245892603653	480.880427592489	1014.473493902736	942.212506257040	627.044682047763	1028.430968796639	956.486716120296	352.439172514159	1065.901782198588	746.854198372319	591.429493974932	988.795571011007	632.977062193663	645.725284378800	1069.370055590608	585.503931604640	565.188686026728	1074.566924012489	498.134403046397	568.977555846590	1042.489117181950	730.074689032237	373.836612750238	942.841571030343	627.365681927340	300.324856999695	1014.586887469821	534.497048549702	360.525270528817	1000.742234206658	455.290310896013	358.006170653703	938.506656074112	400.841900945768	346.503475113444	805.987499758333	343.062596928840	291.786159605075	804.742915041776	212.522491185696	345.215557601634	1048.602778510816	408.719253328150	574.845274071968	982.139296427105	303.780905596922	639.690647703910	1021.320869847930	209.530425124523	573.382051674848	884.923137102162	45.193069491686	554.921686824462	1059.841228706099	97.375291395854	575.731743689130	974.406939452337	38.403606650056	621.187656233229	1180.995010025228	42.272911822977	593.480901037073	622.944213042252	117.349131715772	377.539087717259	689.443384938255	83.163961349609	299.479476116971	789.735030006906	111.710008698422	322.695295866456	887.512931256738	34.435859602054	298.575987631874	1151.623732766377	1132.792351157149	174.182250101639	1411.688563246980	1116.134970562582	174.197974977697	859.506731058353	1110.046928543292	763.845787690669	880.028240531646	850.373060690573	788.062822117260	
94	44.853571428571	799.355225127176	1010.514516799267	488.771481840298	1019.577835354889	1430.858515899773	330.470026779881	1092.215696459634	1359.691834906913	505.689890347287	986.543978646387	1437.914460617427	663.869615781888	979.234762882196	1495.253549154231	483.818362517706	1016.303979042550	942.195789418288	630.737466698900	1027.786785939308	956.528827986523	356.123379808875	1066.885472458596	746.376599695931	594.405004776648	989.254245251340	632.454427949135	648.350033816626	1069.297673315776	584.911470035329	567.458559750809	1074.095484438599	497.121588081947	570.793116655550	1046.961888068644	731.723452998022	377.943695563476	951.008096533888	626.992738076423	303.824303578036	1025.074969319328	535.334784351881	364.449484122386	1012.104461317160	454.780944039805	360.702295074913	947.839226796068	400.789348325127	348.926925933878	813.428613662921	347.832583682597	294.055633994765	808.158487889513	216.937349241850	345.998669812295	1046.975507522083	407.914345108638	576.157475660467	979.577900872864	303.354864470290	640.542380324362	1017.361107542258	209.059860549711	573.686082454090	879.311309581218	45.451755510252	554.844557335664	1054.260707554571	97.359586073915	575.727706452735	968.764417000175	38.533494521183	621.109687668669	1175.386923151662	41.781238181027	593.641990821615	623.549802275060	130.092787278730	378.049324961037	687.912451110016	92.389202659306	299.878052965797	789.489895524704	115.173232105385	322.810361304029	881.897383869030	33.518917458588	298.788881230333	1144.855898653898	1127.623776394456	179.078792278481	1404.160091087308	1100.547737582621	176.449947395466	868.130132423576	1107.987893005646	770.421484511412	895.964098341422	849.073626105081	795.796980365800	
